<svg width="24" height="25" viewBox="0 0 24 25" fill="none" xmlns="http://www.w3.org/2000/svg">
<path d="M18.3811 13.3638L18.4101 15.3679C18.5905 15.3609 18.7168 15.3629 18.7899 15.7252C19.047 16.9903 17.7438 20.1393 14.9359 21.2787C11.4968 22.6626 8.96403 22.0678 7.44337 21.3258C6.09357 20.6674 5.21374 19.7375 4.71671 18.8832L6.06752 18.7344C6.06752 18.7344 3.35238 15.1966 3.23463 14.3628C3.11739 13.5301 1.09619 19.2821 1.09619 19.2821L2.59781 19.1167C3.2692 20.7501 4.70769 22.2197 6.56405 23.1265C7.90032 23.7789 9.3804 24.1051 10.9301 24.1051C12.4713 24.1051 14.0817 23.7814 15.6865 23.1366C19.1477 21.7306 21.2526 17.7834 20.7545 15.3263C20.5045 14.0988 19.5941 13.3678 18.3811 13.3638Z" fill="white"/>
<path d="M23.907 4.4422C23.7296 3.64304 22.6489 2.93507 21.3657 3.21565C20.8441 3.29832 17.5247 4.50883 17.5247 4.50883C17.5247 4.50883 14.2745 1.76514 13.4868 1.16339C12.6982 0.561636 11.6636 0.94393 11.6636 0.94393L14.0335 5.23735L9.61129 6.56911L7.79703 4.46675L6.06543 4.42616C6.06543 4.42616 7.82809 7.08919 7.91377 8.02163C7.92279 8.11532 7.92178 8.22756 7.91627 8.34781C8.88929 7.80768 10.0081 7.49804 11.2006 7.49804C12.2117 7.49804 13.1682 7.72551 14.0305 8.12234L14.4053 8.08576L14.4513 8.32726C15.5972 8.95457 16.5437 9.90304 17.166 11.0519C17.434 9.85494 17.635 8.00359 17.635 8.00359C17.635 8.00359 22.3222 6.49195 22.7275 6.28252C23.1329 6.07459 24.3414 5.80903 23.907 4.4422Z" fill="white"/>
<path d="M11.202 20.5431C14.6556 20.5431 17.465 17.7343 17.465 14.2801C17.465 11.7899 16.0034 9.63496 13.893 8.62637C13.8815 8.61334 13.8715 8.60232 13.8675 8.59881L13.857 8.60933C13.0508 8.23005 12.1504 8.0166 11.2015 8.0166C11.0622 8.0166 10.9244 8.02312 10.7876 8.03163C7.52683 8.24608 4.93945 10.9652 4.93945 14.2796C4.93945 17.7343 7.74879 20.5431 11.202 20.5431ZM8.95229 19.5711C8.85108 19.4554 8.51237 19.0325 8.18119 18.2529C8.69475 18.3876 9.2935 18.4954 9.97742 18.5575C10.1874 19.2424 10.4138 19.7119 10.5752 19.994C10.0055 19.9323 9.45984 19.7875 8.95229 19.5711ZM9.4408 13.2921C9.42577 13.6012 9.41475 13.9214 9.41475 14.2611C9.41475 14.72 9.43078 15.1479 9.45734 15.5477C8.69525 15.4736 8.04039 15.3568 7.49626 15.2231C7.47472 14.926 7.45919 14.6183 7.45919 14.2876C7.45919 14.0627 7.4652 13.8452 7.47522 13.6348C8.01785 13.496 8.6712 13.3722 9.4408 13.2921ZM7.5153 13.0891C7.58896 12.2855 7.73075 11.6096 7.8986 11.0534C8.41317 10.8941 9.03847 10.7563 9.778 10.6761C9.64623 11.2679 9.5345 11.9598 9.47137 12.7715C8.7173 12.8451 8.06494 12.9579 7.5153 13.0891ZM9.49993 16.0693C9.57508 16.8334 9.69383 17.4823 9.82961 18.0254C9.09508 17.9452 8.47029 17.8074 7.95371 17.6486C7.78386 17.134 7.63655 16.5072 7.54787 15.7657C8.10102 15.8935 8.74937 16.0012 9.49993 16.0693ZM11.2931 13.1974C11.6604 13.1974 12.0011 13.2094 12.3293 13.2284C12.3503 13.5807 12.3649 13.9479 12.3649 14.3427C12.3649 14.7917 12.3473 15.2065 12.3208 15.5978C11.9711 15.6194 11.6058 15.6334 11.211 15.6334C10.7716 15.6334 10.3642 15.6164 9.97692 15.5908C9.94685 15.179 9.92831 14.7386 9.92831 14.2611C9.92831 13.9033 9.94084 13.5691 9.95838 13.2465C10.3742 13.2154 10.8167 13.1974 11.2931 13.1974ZM9.99295 12.7284C10.0621 11.9087 10.1808 11.2112 10.3186 10.6305C10.5927 10.613 10.8758 10.6005 11.1789 10.6005C11.45 10.6005 11.706 10.61 11.954 10.624C12.0953 11.1977 12.2176 11.8922 12.2912 12.7083C11.9751 12.6923 11.6439 12.6823 11.2931 12.6823C10.8297 12.6823 10.4003 12.7013 9.99295 12.7284ZM12.2767 16.1179C12.1975 16.8965 12.0743 17.5489 11.9335 18.0845C11.7105 18.095 11.479 18.102 11.2375 18.102C10.9354 18.102 10.6528 18.0895 10.3793 18.0715C10.2355 17.5394 10.1077 16.889 10.0245 16.1074C10.3993 16.131 10.7901 16.1465 11.211 16.1465C11.5868 16.148 11.9405 16.1365 12.2767 16.1179ZM11.1744 19.982C11.0962 19.8707 10.8137 19.4328 10.5366 18.5986C10.762 18.6091 10.9955 18.6156 11.238 18.6156C11.4264 18.6156 11.6053 18.6086 11.7832 18.6031C11.5427 19.3476 11.2947 19.7931 11.1744 19.982ZM13.5198 19.5395C12.9721 19.781 12.3809 19.9419 11.7601 20.0015C11.9235 19.7024 12.1394 19.2354 12.3378 18.57C13.0693 18.5124 13.7062 18.4017 14.2468 18.2624C13.9276 19.0305 13.6034 19.4408 13.5198 19.5395ZM12.4801 18.0444C12.6134 17.4973 12.7286 16.8459 12.8013 16.0814C13.611 16.0127 14.2974 15.8955 14.8711 15.7577C14.7814 16.5112 14.6336 17.1451 14.4652 17.6636C13.9251 17.828 13.2678 17.9693 12.4801 18.0444ZM12.8474 13.264C13.6801 13.3372 14.3781 13.4614 14.9462 13.6057C14.9553 13.8061 14.9613 14.0126 14.9613 14.229C14.9613 14.5762 14.9452 14.8994 14.9222 15.2095C14.3595 15.3553 13.6691 15.4836 12.8414 15.5588C12.8649 15.1785 12.8789 14.7751 12.8789 14.3422C12.8789 13.9619 12.8659 13.6072 12.8474 13.264ZM12.8123 12.7424C12.7442 11.9377 12.6299 11.2493 12.4956 10.6651C13.3128 10.7473 13.9933 10.9006 14.5489 11.0755C14.7072 11.6201 14.841 12.2785 14.9102 13.0626C14.328 12.9253 13.633 12.8086 12.8123 12.7424ZM14.4728 19.0054C14.6055 18.7509 14.7438 18.4418 14.8761 18.0725C15.2559 17.9427 15.5786 17.8049 15.8426 17.6707C15.4628 18.1872 14.9998 18.6392 14.4728 19.0054ZM16.4183 16.6961C16.2745 16.8169 15.8441 17.1421 15.071 17.4507C15.2158 16.9286 15.3381 16.3224 15.4087 15.6149C16.1152 15.4059 16.6037 15.177 16.9038 15.0096C16.8281 15.6049 16.6618 16.171 16.4183 16.6961ZM15.4498 15.0577C15.4648 14.7917 15.4758 14.5186 15.4758 14.229C15.4758 14.0642 15.4688 13.9088 15.4643 13.752C16.2615 14 16.7334 14.2636 16.9299 14.3888C16.8146 14.4695 16.3451 14.7701 15.4498 15.0577ZM16.9289 13.7901C16.6167 13.6207 16.1272 13.4008 15.4348 13.1999C15.3821 12.4678 15.2764 11.832 15.1411 11.2884C16.023 11.6451 16.4544 12.0119 16.5035 12.055C16.7314 12.5966 16.8772 13.1808 16.9289 13.7901ZM15.9964 11.1115C15.7223 10.9667 15.3801 10.8119 14.9643 10.6676C14.825 10.2387 14.6727 9.88298 14.5259 9.59338C15.1041 10.0052 15.6031 10.5193 15.9964 11.1115ZM13.5774 9.04674C13.7212 9.22361 14.0489 9.68306 14.3505 10.4782C13.7918 10.3264 13.1305 10.2031 12.3624 10.1385C12.1584 9.40849 11.9345 8.88841 11.7661 8.55873C12.4065 8.62186 13.0157 8.79071 13.5774 9.04674ZM11.0817 8.53418C11.1088 8.53418 11.1358 8.53267 11.1634 8.53217C11.2886 8.74311 11.5582 9.25567 11.8112 10.1024C11.6063 10.0934 11.3974 10.0874 11.1789 10.0874C10.9289 10.0874 10.6884 10.0939 10.4569 10.1049C10.6874 9.30878 10.9374 8.79271 11.0817 8.53418ZM8.88765 9.01918C9.38519 8.79973 9.9188 8.64891 10.4775 8.57827C10.3086 8.92349 10.0982 9.44106 9.90777 10.1455C9.21784 10.2087 8.61709 10.3189 8.10352 10.4547C8.43271 9.60741 8.78243 9.14545 8.88765 9.01918ZM7.94019 9.54979C7.78937 9.84039 7.63054 10.2036 7.48374 10.6451C7.04833 10.7954 6.69259 10.9562 6.41101 11.108C6.81735 10.4963 7.33693 9.96715 7.94019 9.54979ZM5.90346 12.0505L5.91298 12.0605C5.92099 12.0525 6.35339 11.6491 7.29935 11.2684C7.15706 11.8225 7.04633 12.4774 6.98921 13.2279C6.28525 13.4313 5.78671 13.6528 5.47406 13.8156C5.52367 13.1939 5.67097 12.6001 5.90346 12.0505ZM5.45653 14.4154C5.64141 14.3027 6.13343 14.0356 6.95815 13.7801C6.95213 13.9459 6.94612 14.1113 6.94612 14.2871C6.94612 14.5632 6.95564 14.8242 6.97017 15.0788C6.19005 14.8448 5.69452 14.5983 5.45753 14.463C5.45703 14.447 5.45703 14.4314 5.45653 14.4154ZM5.50914 15.0733C5.84133 15.2371 6.33585 15.4425 7.01276 15.6314C7.08341 16.3224 7.20466 16.9196 7.34946 17.4357C6.55381 17.1185 6.11239 16.7898 5.98011 16.6801C5.74863 16.1786 5.5878 15.6399 5.50914 15.0733ZM7.55188 18.063C7.69367 18.4528 7.84399 18.7795 7.98728 19.0445C7.42762 18.6657 6.93911 18.1902 6.54328 17.6431C6.81635 17.7824 7.15205 17.9272 7.55188 18.063Z" fill="white"/>
<path d="M1.46504 10.5999H3.91613V10.5849C4.49684 10.5137 4.93926 10.1615 4.93926 9.73413C4.93926 9.25514 4.38611 8.86783 3.70419 8.86783L3.70219 8.86833C3.68966 8.39786 3.14403 8.01807 2.46963 8.01807C1.78771 8.01807 1.23506 8.40587 1.23506 8.88437C0.553149 8.88437 0 9.27217 0 9.75066C0 10.2287 0.553149 10.617 1.23506 10.617C1.31323 10.616 1.38989 10.6094 1.46504 10.5999ZM2.46963 9.74966H2.47163C2.47163 9.75117 2.47213 9.75267 2.47213 9.75467H2.46863C2.46863 9.75267 2.46963 9.75167 2.46963 9.74966Z" fill="white"/>
<path d="M21.7828 8.93209C21.7818 8.93209 21.7818 8.93259 21.7808 8.93259C21.7703 8.52975 21.3033 8.20508 20.7266 8.20508C20.1434 8.20508 19.6704 8.53677 19.6704 8.94612C19.0872 8.94612 18.6147 9.27781 18.6147 9.68716C18.6147 10.096 19.0872 10.4282 19.6704 10.4282C19.7381 10.4282 19.8037 10.4227 19.8678 10.4147H21.9642V10.4016C22.4612 10.341 22.8395 10.0394 22.8395 9.67413C22.8385 9.26378 22.366 8.93209 21.7828 8.93209ZM20.7256 9.69116C20.7256 9.68966 20.7261 9.68866 20.7261 9.68716C20.7261 9.68716 20.7271 9.68716 20.7281 9.68716C20.7281 9.68816 20.7286 9.68966 20.7286 9.69116H20.7256Z" fill="white"/>
<path d="M6.70671 2.17004C6.7478 2.17004 6.78738 2.16653 6.82596 2.16152H8.0956V2.1535C8.39672 2.11693 8.6257 1.93405 8.6257 1.71259C8.6257 1.46457 8.3391 1.26366 7.98587 1.26366H7.98487C7.97835 1.02015 7.69576 0.823242 7.34654 0.823242C6.99331 0.823242 6.70721 1.02416 6.70721 1.27217C6.35398 1.27217 6.06738 1.47309 6.06738 1.72111C6.06738 1.96912 6.35298 2.17004 6.70671 2.17004ZM7.34604 1.72161H7.34704C7.34704 1.72261 7.34704 1.72311 7.34704 1.72411H7.34504C7.34554 1.72311 7.34604 1.72261 7.34604 1.72161Z" fill="white"/>
<path d="M17.2576 0.908387C17.2851 0.908387 17.3112 0.905881 17.3377 0.902875H18.194V0.897364C18.3964 0.872312 18.5512 0.749557 18.5512 0.599746C18.5512 0.432398 18.3573 0.297117 18.1198 0.297117C18.1153 0.132776 17.9244 0 17.6895 0C17.4505 0 17.2581 0.135782 17.2581 0.302628C17.0201 0.302628 16.8267 0.43841 16.8267 0.605257C16.8262 0.772605 17.0201 0.908387 17.2576 0.908387ZM17.6895 0.605758V0.607261H17.6885L17.6895 0.605758Z" fill="white"/>
</svg>
