<svg width="29" height="24" viewBox="0 0 29 24" fill="none" xmlns="http://www.w3.org/2000/svg">
<path d="M28.9479 20.4659L23.9347 1.52904C23.8699 1.2814 23.7441 1.04638 23.5646 0.83748C23.3851 0.628578 23.1554 0.449914 22.8887 0.31175C22.622 0.173587 22.3236 0.0786475 22.0106 0.0323863C21.6976 -0.0138749 21.3762 -0.0105461 21.0648 0.0421815L13.9944 1.24943C13.369 1.35823 12.8229 1.65881 12.475 2.0858C12.1271 2.51279 12.0054 3.03165 12.1365 3.52953L17.1497 22.4663C17.2614 22.8984 17.557 23.2867 17.9867 23.566C18.4163 23.8453 18.9539 23.9985 19.5091 24C19.6807 23.9998 19.8518 23.9853 20.0196 23.9568L27.09 22.7495C27.7162 22.6405 28.2628 22.3393 28.6108 21.9116C28.9587 21.4839 29.0799 20.9642 28.9479 20.4659ZM14.5004 3.13711V3.12631L21.5693 1.92626L22.0723 3.83074L15.0034 5.03919L14.5004 3.13711ZM15.5003 6.91367L22.5723 5.70762L23.0768 7.6157L16.0108 8.82295L15.5003 6.91367ZM16.5033 10.7022L23.5752 9.49498L25.5841 17.0841L18.5122 18.2914L16.5033 10.7022ZM26.584 20.8727L19.5151 22.0727L19.0121 20.1682L26.0811 18.9598L26.584 20.8619V20.8727ZM9.66692 0.95902H2.41673C1.77577 0.95902 1.16107 1.16131 0.707844 1.5214C0.254619 1.88148 0 2.36986 0 2.8791V22.0799C0 22.5892 0.254619 23.0775 0.707844 23.4376C1.16107 23.7977 1.77577 24 2.41673 24H9.66692C10.3079 24 10.9226 23.7977 11.3758 23.4376C11.829 23.0775 12.0837 22.5892 12.0837 22.0799V2.8791C12.0837 2.36986 11.829 1.88148 11.3758 1.5214C10.9226 1.16131 10.3079 0.95902 9.66692 0.95902ZM2.41673 2.8791H9.66692V4.79918H2.41673V2.8791ZM2.41673 6.71927H9.66692V18.2398H2.41673V6.71927ZM9.66692 22.0799H2.41673V20.1598H9.66692V22.0799Z" fill="#F1F1F1"/>
</svg>
