<svg width="48" height="24" viewBox="0 0 48 24" fill="none" xmlns="http://www.w3.org/2000/svg">
<path d="M22.2996 21.8174C21.4495 21.818 20.6182 21.6168 19.911 21.2391C19.2039 20.8614 18.6527 20.3243 18.3272 19.6957C18.0017 19.0671 17.9167 18.3754 18.0828 17.7081C18.2489 17.0408 18.6587 16.4279 19.2602 15.9471L24.4486 11.8001L25.4031 10.9008L24.4486 11.6822C24.1848 11.4779 23.975 11.2332 23.8316 10.9626C23.6883 10.6921 23.6143 10.4013 23.6141 10.1075C23.6121 9.80551 23.6847 9.50622 23.8276 9.22679C23.9706 8.94736 24.1812 8.6933 24.4472 8.4792L33.7862 1.00583C34.5928 0.361732 35.6856 0 36.8249 0C37.9643 0 39.0571 0.361732 39.8636 1.00583L44.0143 4.32781C44.8185 4.97378 45.27 5.84849 45.27 6.76037C45.27 7.67225 44.8185 8.54697 44.0143 9.19293C43.7586 9.39771 43.4118 9.51281 43.0501 9.51291C42.6884 9.51301 42.3414 9.39811 42.0856 9.19348C41.8297 8.98884 41.6859 8.71125 41.6858 8.42175C41.6856 8.13225 41.8292 7.85458 42.0849 7.6498C42.3788 7.41357 42.5438 7.09376 42.5438 6.76037C42.5438 6.42698 42.3788 6.10718 42.0849 5.87094L37.9356 2.54132C37.6406 2.30614 37.2413 2.17409 36.8249 2.17409C36.4086 2.17409 36.0093 2.30614 35.7143 2.54132L26.3767 10.0158C26.8879 10.4921 27.1805 11.0939 27.2057 11.7215C27.2091 12.0215 27.1373 12.3189 26.9947 12.5964C26.8521 12.8738 26.6415 13.1255 26.3753 13.3367L21.1938 17.4837C20.912 17.7217 20.7574 18.0383 20.7629 18.3661C20.7684 18.694 20.9336 19.0071 21.2232 19.239C21.5129 19.4708 21.9042 19.603 22.3138 19.6074C22.7234 19.6118 23.119 19.4881 23.4164 19.2626L28.0102 15.5848C28.2681 15.3865 28.6129 15.2772 28.9705 15.2805C29.3281 15.2838 29.6697 15.3993 29.9218 15.6023C30.174 15.8052 30.3164 16.0793 30.3185 16.3655C30.3205 16.6517 30.182 16.9271 29.9328 17.1323L25.339 20.8101C24.9402 21.1299 24.4665 21.3835 23.9449 21.5564C23.4233 21.7293 22.8642 21.8179 22.2996 21.8174ZM48 17.4521C48 18.7471 47.5202 20.0131 46.6212 21.0899C45.7222 22.1667 44.4445 23.006 42.9495 23.5016C41.4546 23.9972 39.8096 24.1268 38.2225 23.8742C36.6355 23.6215 35.1777 22.9979 34.0335 22.0822C32.8894 21.1664 32.1102 19.9997 31.7945 18.7295C31.4788 17.4593 31.6408 16.1428 32.26 14.9463C32.8793 13.7498 33.9279 12.7271 35.2733 12.0077C36.6187 11.2882 38.2005 10.9041 39.8186 10.9041C41.9878 10.9059 44.0675 11.5963 45.6013 12.8239C47.1352 14.0515 47.9978 15.716 48 17.4521ZM45.2729 17.4521C45.2729 16.5887 44.953 15.7447 44.3537 15.0268C43.7544 14.309 42.9025 13.7495 41.9059 13.4191C40.9093 13.0887 39.8126 13.0022 38.7546 13.1706C37.6965 13.3391 36.7247 13.7548 35.9619 14.3653C35.1991 14.9758 34.6797 15.7536 34.4692 16.6004C34.2587 17.4472 34.3668 18.3249 34.7796 19.1226C35.1924 19.9202 35.8915 20.602 36.7884 21.0817C37.6854 21.5613 38.7399 21.8174 39.8186 21.8174C41.2652 21.8174 42.6525 21.3574 43.6754 20.5388C44.6982 19.7201 45.2729 18.6098 45.2729 17.4521Z" fill="white"></path>
</svg>
