<svg width="33" height="25" viewBox="0 0 33 25" fill="none" xmlns="http://www.w3.org/2000/svg">
<path d="M11.3333 17.4581H5.65413C5.17053 17.4581 4.92873 17.4581 4.72413 17.4725C3.77408 17.5381 2.88607 17.8301 2.21095 18.2987C1.53584 18.7673 1.11526 19.3836 1.02067 20.0431C1 20.1851 1 20.3529 1 20.6886C1 21.0902 1 21.2911 1.0248 21.4503C1.14478 22.194 1.6787 22.8758 2.51266 23.3501C3.34663 23.8245 4.41461 24.0538 5.4888 23.9893C5.71613 23.975 6.00133 23.9362 6.5676 23.8573L7.17933 23.7713C7.96467 23.6637 8.3594 23.6092 8.69007 23.5202C9.35599 23.3417 9.94395 23.0465 10.3967 22.6634C10.8494 22.2803 11.1514 21.8223 11.2734 21.3341C11.3333 21.0902 11.3333 20.8119 11.3333 20.2568V7.817C11.3333 5.56486 11.3333 4.44023 12.2695 3.64697C13.2078 2.8537 14.7971 2.63279 17.9797 2.19097L22.1131 1.61718C26.6866 0.981703 28.9744 0.664684 30.4872 1.52537C32 2.38606 32 4.00559 32 7.2432V7.41678M32 7.41678V14.5892M32 7.41678L11.3333 10.2857M32 14.5892V17.3864C32 17.9444 32 18.2213 31.938 18.4651C31.8164 18.953 31.515 19.4108 31.063 19.7939C30.6111 20.177 30.024 20.4723 29.3588 20.6513C29.0261 20.7402 28.6334 20.7947 27.846 20.9037L27.2343 20.9898C26.668 21.0673 26.3849 21.1074 26.1534 21.1204C25.0796 21.1845 24.0121 20.9549 23.1786 20.4806C22.3451 20.0063 21.8114 19.3248 21.6915 18.5813C21.6667 18.4235 21.6667 18.2227 21.6667 17.8211C21.6667 17.4839 21.6667 17.3161 21.6873 17.1741C21.7819 16.5147 22.2025 15.8983 22.8776 15.4297C23.5527 14.9611 24.4407 14.6692 25.3908 14.6035C25.5954 14.5892 25.8372 14.5892 26.3208 14.5892H32Z" stroke="#EEEEEE" stroke-width="1.5"></path>
</svg>
